<svg width="40" height="40" viewBox="0 0 40 40" fill="none" xmlns="http://www.w3.org/2000/svg">
<g id="icon-mail">
<path id="Shape" fill-rule="evenodd" clip-rule="evenodd" d="M1.66673 9.9711C1.66646 9.98754 1.66643 10.004 1.66665 10.0204V30C1.66665 32.7538 3.91284 35 6.66665 35H33.3333C36.0871 35 38.3333 32.7538 38.3333 30V10.0206C38.3335 10.004 38.3335 9.98744 38.3332 9.97085C38.3174 7.23036 36.0774 5 33.3333 5H6.66665C3.92248 5 1.68238 7.23049 1.66673 9.9711ZM5.17761 9.25658C5.45324 8.71154 6.02005 8.33333 6.66665 8.33333H33.3333C33.9799 8.33333 34.5467 8.71154 34.8224 9.25658L20 19.6322L5.17761 9.25658ZM35 13.2011V30C35 30.9129 34.2462 31.6667 33.3333 31.6667H6.66665C5.75379 31.6667 4.99998 30.9129 4.99998 30V13.2011L19.0442 23.0321C19.6181 23.4338 20.3819 23.4338 20.9558 23.0321L35 13.2011Z" fill="white"/>
</g>
</svg>
