<svg width="40" height="40" viewBox="0 0 40 40" fill="none" xmlns="http://www.w3.org/2000/svg">
<g id="icon-user">
<g id="Shape">
<path fill-rule="evenodd" clip-rule="evenodd" d="M20 3.33398C15.3976 3.33398 11.6667 7.06494 11.6667 11.6673C11.6667 16.2697 15.3976 20.0007 20 20.0007C24.6024 20.0007 28.3333 16.2697 28.3333 11.6673C28.3333 7.06494 24.6024 3.33398 20 3.33398ZM15 11.6673C15 8.90589 17.2386 6.66732 20 6.66732C22.7614 6.66732 25 8.90589 25 11.6673C25 14.4287 22.7614 16.6673 20 16.6673C17.2386 16.6673 15 14.4287 15 11.6673Z" fill="#2D3648"/>
<path d="M13.3333 23.334C11.1232 23.334 9.00358 24.212 7.44078 25.7748C5.87797 27.3376 5 29.4572 5 31.6673V35.0007C5 35.9211 5.74619 36.6673 6.66667 36.6673C7.58714 36.6673 8.33333 35.9211 8.33333 35.0007V31.6673C8.33333 30.3412 8.86012 29.0695 9.7978 28.1318C10.7355 27.1941 12.0073 26.6673 13.3333 26.6673H26.6667C27.9927 26.6673 29.2645 27.1941 30.2022 28.1318C31.1399 29.0695 31.6667 30.3412 31.6667 31.6673V35.0007C31.6667 35.9211 32.4129 36.6673 33.3333 36.6673C34.2538 36.6673 35 35.9211 35 35.0007V31.6673C35 29.4572 34.122 27.3376 32.5592 25.7748C30.9964 24.212 28.8768 23.334 26.6667 23.334H13.3333Z" fill="#2D3648"/>
</g>
</g>
</svg>
