<svg width="40" height="26" viewBox="0 0 40 26" fill="none" xmlns="http://www.w3.org/2000/svg">
<g id="GE" clip-path="url(#clip0_129_4782)">
<path id="Vector" d="M1.42212 0H38.3452V26H1.42212V0Z" fill="white"/>
<path id="Vector_2" d="M17.4222 10.4H0V15.6H17.4222V26H22.7556V15.6H40.1778V10.4H22.7556V0H17.4222V10.4Z" fill="#EB000E"/>
<path id="Vector_3" d="M30.7555 4.67961L30.4 2.59961H32.1778L31.8222 4.67961L33.9555 4.33294V6.06628L31.8222 5.71961L32.1778 7.79961H30.4L30.7555 5.71961L28.6222 6.06628V4.33294L30.7555 4.67961ZM8.17777 4.67961L7.82221 2.59961H9.59999L9.24443 4.67961L11.3778 4.33294V6.06628L9.24443 5.71961L9.59999 7.79961H7.82221L8.17777 5.71961L6.04443 6.06628V4.33294L8.17777 4.67961ZM8.17777 20.2796L7.82221 18.1996H9.59999L9.24443 20.2796L11.3778 19.9329V21.6663L9.24443 21.3196L9.59999 23.3996H7.82221L8.17777 21.3196L6.04443 21.6663V19.9329L8.17777 20.2796ZM30.7555 20.2796L30.4 18.1996H32.1778L31.8222 20.2796L33.9555 19.9329V21.6663L31.8222 21.3196L32.1778 23.3996H30.4L30.7555 21.3196L28.6222 21.6663V19.9329L30.7555 20.2796Z" fill="#EB000E"/>
</g>
<defs>
<clipPath id="clip0_129_4782">
<rect width="40" height="26" fill="white"/>
</clipPath>
</defs>
</svg>
